<?xml version="1.0" encoding="UTF-8"?>
<svg id="Layer_1" data-name="Layer 1" xmlns="http://www.w3.org/2000/svg" viewBox="0 0 960 960">
  <defs>
    <style>
      .cls-1 {
        fill: #00836c;
      }

      .cls-1, .cls-2, .cls-3 {
        stroke-width: 0px;
      }

      .cls-2 {
        fill: #f58220;
      }

      .cls-3 {
        fill: #fff;
      }
    </style>
  </defs>
  <path class="cls-1" d="M47.43,569.91h864.84v-179.74H47.43v179.74Z"/>
  <g>
    <path class="cls-3" d="M265.08,480.03c0,50.02-40.53,90.56-90.56,90.56s-90.54-40.54-90.54-90.56,40.54-90.54,90.54-90.54,90.56,40.56,90.56,90.54"/>
    <path class="cls-3" d="M296.42,511.3c-.08-3.96.09-7.9.26-11.84-.03-14.97.06-29.95-.04-44.91-.45-3.89-.04-7.87-.39-11.75-.15-2.85-.12-5.76-.24-8.63-.3-1.01-.17-2.12-.39-3.21-.51-1.52.46-1.67,1.75-1.32,4.33-.02,8.6.23,12.94.15,2.84-.25,5.8-.03,8.64-.26.09,2.04-.29,3.94-.31,5.95-.26,3.06-.42,6.3-.39,9.48-.15,2.56-.15,5.17-.18,7.76-.06,7.48-.23,14.95-.2,22.44-.09,7.55.06,15.1.07,22.65.2,4.57.06,9.17.21,13.74.06,3.72.17,7.45.39,11.15.15,2.16.44,4.28.4,6.49-1.67-.12-3.43-.09-5.02-.28-3.94-.05-7.91-.21-11.85,0-1.85-.08-3.54.26-5.41.18-1.51.66-1.06-.7-1.06-1.73.24-1.13.2-2.36.39-3.51.19-3.25.05-6.56.36-9.79,0-.92-.01-1.84.05-2.75h0Z"/>
    <path class="cls-3" d="M358.15,519.32c4.66.49,9.34.76,14.13.65,5.7.05,11.39-1.15,16.34-3.94,3.73-2.1,7.01-5.24,9.31-8.91,1.45-1.98,2.47-4.18,3.41-6.45,1.73-4.61,2.89-9.6,3.27-14.6.54-4.88.54-9.9.25-14.83-.29-4.6-1.23-9.16-2.9-13.46-1.38-3.17-3.07-6.21-5.5-8.73-2.05-2.37-4.65-4.3-7.46-5.77-1.85-.79-3.79-1.79-5.84-2.2-6.58-1.87-13.53-1.6-20.31-1.25-1.58.06-3.14.21-4.7.28-.31,20.31-.19,40.65-.21,60.97.21,6.07.01,12.17.21,18.24h0ZM336.45,512.3c.22-9.52.26-19.06.22-28.6.31-5.76-.16-11.54,0-17.32.07-8.88-.29-17.71-.36-26.55-.36-2.43-.08-4.99-.38-7.41.06-.78-1.14-3.44.52-2.75,2.92.45,5.97.85,9.03.87,3.41.28,6.83.36,10.33.32,2.86-.39,5.96-.3,8.87-.58,4.42-.16,8.71-.6,13.12-.64,4.82-.31,9.8-.04,14.58.8,3.45.5,6.87,1.57,10.15,2.7,3.42,1.34,6.64,3.12,9.6,5.36,3.84,2.95,7.23,6.58,9.68,10.69,2.48,4.13,4.2,8.72,5.17,13.45.85,3.09,1.16,6.28,1.39,9.47.34,3.68.29,7.45.04,11.13-.33,2.87-.44,5.82-1.13,8.65-.49,2.51-1.11,5.02-2,7.4-1.54,4.93-4.12,9.49-7.33,13.54-2.04,2.27-4.07,4.59-6.59,6.37-4.03,3.4-8.84,5.7-13.79,7.48-3.14.91-6.27,1.9-9.54,2.3-7.22,1.34-14.64,1.18-21.9.75-3.28-.05-6.47-.46-9.78-.45-4.5-.44-9.23-.79-13.7-.19-2.4.22-4.76.49-7.11.97.12-1.92.55-3.78.53-5.74.14-4.01.26-7.97.36-12.01h0Z"/>
    <path class="cls-3" d="M462.76,519.16c3.14.21,6.24.74,9.49.35,2.15-.44,4.37-.87,6.28-1.96.92-.48,1.75-1.1,2.5-1.74.93-.65,1.87-1.74,2.6-2.79.81-.87,1.25-2.2,1.93-3.26.69-1.72,1.19-3.64,1.52-5.5.02-1.93.35-3.73.3-5.66-.48-1.26,0-2.98-.62-4.25-.44-1.9-1.04-3.8-2.27-5.38-.56-.93-1.16-1.79-2.03-2.42-.66-.98-1.94-1.54-2.83-2.32-1.1-.31-1.96-1.16-3.14-1.26-1.48-.48-3.04-1.06-4.66-.94-2.19-.68-4.72-.24-7.05-.37-2.05-.57-2.3.66-2.03,2.42v35.07h0ZM462.76,472.47c3.34,0,6.78.16,9.91-.79,1.58-.51,3.38-1.04,4.83-2.12,1.58-.91,2.78-2.12,3.93-3.49,1.12-1.51,2.06-3.32,2.6-5.21.44-1.13.63-2.41.75-3.64.23-2.07.47-4.18,0-6.17-.1-1.46-.41-2.83-1.14-4.06-.76-1.85-2.03-3.2-3.53-4.48-1.27-1.13-2.81-1.64-4.37-2.4-3.88-1.1-8.16-1.45-12.18-.79-1.56-.06-.48,2.24-.8,3.28v29.87h0ZM441.58,511.3c.07-6.28.1-12.58.18-18.86.16-8.63.02-17.29.07-25.93-.26-4.1-.06-8.26-.19-12.38-.04-5.07-.1-10.11-.33-15.14-.17-2.23-.15-4.38-.44-6.48.15-.94-.52-2.51.12-2.98,4.3.11,8.62.16,12.91.26,4.95-.3,10,0,14.98-.2,4.98,0,10.06-.36,14.96.44,1.92.34,3.9.52,5.7,1.26,2.26.48,4.28,1.49,6.35,2.48,1.14.84,2.6,1.46,3.71,2.48,1.75,1.31,3.42,3.04,4.67,5.03,1.16,1.78,2.01,3.74,2.43,5.85.43,2.39.65,4.92.16,7.35-.21,2.31-.83,4.63-1.96,6.63-.97,2.42-2.7,4.5-4.53,6.44-1.67,1.64-3.65,2.93-5.51,4.14-1.83,1.07-3.91,1.88-5.96,2.61-1.08.26-2.22.54-3.26.87,1.24.17,2.43.6,3.66.93,1.58.36,2.96,1.24,4.53,1.7,2.29,1.26,4.53,2.43,6.44,4.11,2.31,1.8,4.21,4.11,5.75,6.63,1.46,2.84,2.61,6,2.88,9.28.55,4.42.04,9.1-1.5,13.21-.85,2.48-2.15,4.74-3.78,6.79-1.24,1.49-2.54,3.01-4.12,4.09-1.9,1.73-4.19,2.94-6.47,4.12-2.8,1.16-5.63,2.01-8.61,2.56-3.68.45-7.34.75-11.08.61-5.04-.17-10.12-.05-15.14-.28-3.4,0-6.69-.12-10.06,0-2.2.3-4.59.13-6.85.28-1.18.01-.21-1.99-.41-2.89.19-2.08.35-4.14.38-6.33.26-2.88.18-5.79.32-8.67h0Z"/>
    <path class="cls-3" d="M530.68,511.3c.33-13.05.2-26.11.23-39.18.02-9.78-.01-19.58-.32-29.33-.24-1.82-.04-3.84-.25-5.68.06-1.7-.27-3.25-.27-4.89-.18-.84-.22-1.92-.17-2.69,2.61.14,5.25.17,7.9.14,2.3.28,4.86.04,7.26.12,2.42-.29,4.97,0,7.4-.24,1.47-.34.36,1.48.69,2.33-.33,2.05-.28,4.15-.37,6.32-.28,2.36-.01,4.85-.23,7.23-.33,2.21.01,4.62-.19,6.9-.06,5.29-.18,10.57-.23,15.86.02,12.17-.1,24.35.23,36.5.09,2.82-.03,5.69.13,8.49.33,2.74,0,5.66.34,8.41-.12,2.42.35,4.62.35,6.98.3,1.25-1.77.22-2.56.48-1.74-.1-3.46-.21-5.25-.15-2.44-.23-4.98-.03-7.46-.1-1.42.26-3.17-.07-4.54.24-1.2-.08-2.56.24-3.54.04.12-1.73.2-3.4.41-5.04.11-2.68.29-5.3.23-8.02.23-1.48.2-3.16.2-4.72h0Z"/>
    <path class="cls-3" d="M616.4,522.17c2.31.04,4.59-.2,6.83-.48,1.02-.47,2.33-.28,3.35-.89,1.02-.31,1.91-.87,2.78-1.53,1.43-.79,2.35-2.19,3.17-3.47.42-.89.77-1.75,1.04-2.67.82-2.47.64-5.23.64-7.87-.13-1.06-.27-2.17-.63-3.1-.14-1.15-.83-2.05-1.2-3.11-.77-1.01-1.45-2.27-2.6-2.96-.65-.74-1.87-1.23-2.77-1.78-1.57-.69-3.17-1.05-4.83-1.41-1.34-.34-2.86-.28-4.3-.47-.98-.05-2.5-.5-2,1.04,0,7.9-.05,15.82.2,23.68.08,1.27,0,2.67.19,3.77.03.41-.1.97.14,1.24h0ZM633.58,471.68c.11-1.81-.1-3.71-.7-5.29-.36-1.08-.96-2.1-1.65-2.98-.65-.71-1.41-1.35-2.16-1.81-.87-.46-1.57-.95-2.56-1.17-1.05-.39-2.22-.59-3.36-.84-2.1-.41-4.31-.39-6.49-.36-.35,1.25-.23,2.74-.26,4.15-.33.97-.2,2.2-.32,3.32-.21,6.39-.2,12.83-.2,19.26,2.07.05,4.1-.14,6.13-.26,1.27-.35,2.67-.25,3.87-.77,1.18-.29,2.07-.9,2.99-1.76.55-.53,1.07-1.11,1.59-1.85,1.18-1.54,1.61-3.4,2.28-5.16.22-1.5.84-2.95.84-4.48h0ZM627.28,488.61c2.86.2,5.77.23,8.59.71,1.41.1,2.61.62,3.97.87.89.3,1.8.57,2.64.97,1.06.4,2.02,1.01,3.06,1.52.71.78,1.68,1.33,2.35,2.09.77.79,1.32,1.69,1.93,2.62.3.71.71,1.52.96,2.28.35,1.16.67,2.39.86,3.61.38,2.63.33,5.42.08,8.09-.35,1.56-.6,3.16-1.23,4.61-.53,1.1-.85,2.38-1.77,3.21-.88,1.73-2.47,2.96-3.84,4.27-1.38.96-2.84,1.82-4.33,2.5-1.04.33-1.95,1.01-3.06,1.09-.93.5-2.03.55-3.04.89-1.57.16-3.12.71-4.75.68-6.11.26-12.26.04-18.38.12-4.23-.02-8.56.04-12.74-.03.14-1.42.3-2.76.33-4.23.3-2,.06-4.18.38-6.17.18-6.73.08-13.49.09-20.25-.21-2.59.01-5.26-.29-7.85.04-4.72-.14-9.41-.24-14.11.05-3.29-.13-6.53-.2-9.79.01-4.61-.09-9.21-.07-13.82,3.81.05,7.62.29,11.43.29,2.82.02,5.61.17,8.43.22,4.82.13,9.71-.18,14.45.63,1.39.37,2.93.43,4.24,1.06,1.75.42,3.49,1.21,5.01,2.13.84.27,1.6,1.03,2.37,1.49,1.17.82,1.91,1.95,2.96,2.91.32.9,1.03,1.61,1.32,2.55.49.8.69,1.74.95,2.57.39,1.65.47,3.53.42,5.34-.25.98-.14,1.99-.56,2.9-.18,1.08-.72,2.13-1.28,3.13-.51,1.2-1.33,2.13-2.15,3.11-.42.66-1.18,1.1-1.68,1.71-.95.5-1.85,1.39-2.85,1.79-.78.52-1.71,1.08-2.7,1.3-.78.51-1.69.76-2.62,1-1.24.34-2.52.83-3.85.94-1.69.45-3.45.58-5.19.74v.35h0Z"/>
    <path class="cls-3" d="M697.48,499.25c-.37-1.38-.72-2.89-1.54-4.14-.12-.96-.73-1.62-.87-2.56-.3-.88-.55-1.69-.92-2.53-.49-1.58-1.07-3-1.51-4.52-.56-1.29-.91-2.65-1.65-3.8-.08-1-.94-1.59-.92-2.65-.66-1.24-1.13-2.59-1.61-3.86-.47-.49-.54-2.34-1.04-.92-.27.79-.69,1.32-1.05,2.06-.71,1.61-1.41,3.23-2.06,4.93-.52.76-.52,1.8-1.03,2.49-.18,1.06-.76,1.87-.95,2.97-.64,1.12-1.04,2.45-1.48,3.57-.57,1.45-1.18,2.93-1.57,4.46-.43.78-.63,1.72-.92,2.57-.04.58-1.09,2.08.35,1.73,1.96.11,3.99.28,6.1.19h12.65,0ZM726.95,528.36c-3.32-.07-6.54.18-9.85.15-3.06.11-6.17.21-9.27.22-.37-1.16-.65-2.27-.99-3.36-.28-.99-.52-1.71-.78-2.64-.94-2.13-1.63-4.46-2.24-6.71-.41-1.64-1.06-3.2-1.48-4.85-.32-1.04-.67-2-1.02-3.02-.28-.59-.5-1.46-.97-1.71h-25.83c-.5,1.11-.92,2.41-1.22,3.59-1.04,2.56-2.04,5.22-2.84,7.88-.97,2.45-1.56,5.11-2.62,7.51-.32,1.11-.71,2.21-1.14,3.3-2.35-.09-4.65-.26-7.03-.22-.61-.44-2.65.25-2.62-.38.17-.61.57-1.41.85-2.11.85-1.95,1.67-4.13,2.51-6.09.77-2.17,1.8-4.34,2.61-6.6,1.09-2.05,1.69-4.3,2.67-6.42.95-2.45,2.04-4.81,3.04-7.21.51-1.89,1.47-3.7,2.11-5.52.78-1.47,1.05-3.11,1.94-4.52.85-2.14,1.55-4.52,2.56-6.69.88-2.14,1.65-4.32,2.68-6.35.6-1.83,1.26-3.6,1.98-5.39,1.2-3.2,2.71-6.28,3.79-9.54.51-1.71,1.37-3.34,1.81-5.13.81-1.63,1.46-3.38,2.19-5.04.39-.5,1.25.23,1.94.13,1.96.18,4.05,0,5.98-.26,2.3,1.1,2.33,6.05,3.85,8.5,1.35,3.23,2.82,6.42,3.87,9.77.9,2.13,1.51,4.37,2.68,6.35,1.16,3.28,2.43,6.49,3.69,9.73.37,1.19,1.27,2.14,1.45,3.4.68,1.73,1.26,3.5,1.95,5.23.76,1.98,1.41,3.97,2.37,5.67.87,2.17,1.72,4.45,2.57,6.71.55,1.41,1.04,2.97,1.79,4.33,1.29,2.04,1.59,4.45,2.71,6.6.46,1.57,1.07,3.05,1.64,4.38.34.81.57,1.56,1.08,2.11.47,1.14.89,2.44,1.33,3.55,0,.21.38.35.24.63h0Z"/>
    <path class="cls-3" d="M801.21,452.47c-.19,1.9-.37,3.77-.5,5.67-.12,2.49-.35,4.96-.45,7.45-.26,4.73-.36,9.45-.33,14.21-.36,3.87-.08,7.88-.17,11.81.4,4.6,0,9.3.34,13.91.03,4.19.38,8.33.5,12.49,0,2.68.15,5.35.32,7.99-.1.85.18,2.19,0,2.73-1.88-.09-3.44-.48-5.42-.37-1.6-.15-2.81.26-4.25.37-.76-.49-1.12-1.5-1.92-2.05-.71-.75-1.21-1.6-1.97-2.22-.43-.87-1.33-1.29-1.77-2.12-1.83-2.01-3.71-4.09-5.49-6.21-1.03-1.13-2.06-2.16-2.98-3.33-1.1-.93-1.71-2.24-2.84-3.18-1.7-1.77-3.28-3.59-4.89-5.43-.84-.6-1.3-1.59-2.1-2.19-.75-.96-1.75-1.76-2.4-2.86-1.98-1.65-3.46-3.66-5.25-5.59-1.47-1.27-2.69-2.78-3.88-4.23-.83-1.02-2.02-1.71-2.71-2.84-1.18-.94-1.94-2.31-3.07-3.34-1.87-1.54-3.36-3.54-4.95-5.34-.96-.55-1.54-1.52-2.32-2.26.01,11.94-.06,23.9.11,35.82.12,5.1.35,10.19.3,15.31.17.77.59,2.61-.69,2.01-1.63-.33-3.27-.38-5.15-.32-1.25.17-2.42.27-3.74.35v-76.26c2.01-.12,3.54.26,5.35.33,1.25.33,2.91.32,4.23.1,1.01-.12,1.9-.19,2.91-.43,1.31,1.76,2.88,3.28,4.38,4.86,2.64,3.26,5.6,6.25,8.32,9.44,2.29,2.13,4.02,4.77,6.31,6.92,1.93,2.3,4.13,4.37,6.05,6.66,2.04,2.5,4.43,4.69,6.44,7.21,2.41,2.27,4.31,5,6.7,7.3,2.36,2.77,4.84,5.4,7.25,8.13,1.12,1.94.59-.88.68-1.77-.11-6.23-.02-12.46-.24-18.68-.21-7.67.05-15.37-.27-23.03-.14-2.25-.02-4.52-.06-6.78,1.57.34,3.31.53,5.29.45,1.62-.08,2.93-.18,4.36-.7h0Z"/>
    <path class="cls-3" d="M879.89,528.73h-21.24c-1.39-2.01-2.66-4.02-3.95-6.07-1.37-2.06-2.7-4.15-4.07-6.2-.89-1.33-1.69-2.8-2.72-4.06-.75-1.49-1.96-2.74-2.63-4.24-1.1-1.41-2.03-2.93-3.09-4.43-.66-.89-1.34-1.91-1.97-2.89-.8-1.05-1.44-2.28-2.35-3.31-.52-.96-1.36-1.82-1.92-2.76,0,8.61-.05,17.23.06,25.82.47,1.42-.1,3.18.35,4.63.09,1.16.18,2.38.39,3.52-1.78-.01-3.41-.26-5.19-.22-1.7-.29-3.54-.07-5.32-.15-1.49,0-2.99-.02-4.48.02-1.02.27-2.29.28-3.51.35,0-6.38-.04-12.76.1-19.11.1-5.5.1-11.02.19-16.52.36-3.41.05-6.89.29-10.32.05-8.27.16-16.57-.14-24.81-.42-1.26-.12-2.79-.34-4.13-.33-1.17.06-1.6,1.17-1.2,2.26.36,4.63.53,6.97.67,2.17.29,4.43-.13,6.66-.14,1.24-.18,2.56-.19,3.78-.45-.22,1.88-.46,3.76-.41,5.77-.31.96-.1,2.09-.31,3.09-.08,2.57.1,5.22-.14,7.74-.19,6-.1,12.09-.12,18.13.73-1.06,1.63-1.81,2.49-2.81,1.17-1.41,2.29-2.84,3.53-4.16,1.44-1.79,3.14-3.51,4.46-5.46,1.25-1.09,2.04-2.49,3.19-3.67.91-1.22,1.98-2.4,2.94-3.59.99-1.37,2.19-2.61,3.12-4.02.95-1.02,1.7-2.13,2.55-3.23.68-.96,1.57-1.83,2.17-2.89.66-.61,1.22-1.5,1.72-2.25.87-.76,1.29-2.13,2.26-2.66,1.71.37,3.85.29,5.67.45,2.27-.05,4.9.19,6.82-.37,1.71-.48.26.77-.39,1.38-1.48,1.79-3.04,3.47-4.62,5.18-1.35,1.28-2.5,2.75-3.81,4.07-1.61,1.91-3.41,3.71-5.01,5.55-1.82,1.79-3.4,3.86-5.23,5.65-2.19,2.31-4.27,4.69-6.48,6.99-.81,1-1.84,1.8-2.59,2.85,1.45,2.4,3.27,4.57,4.8,6.94,3.01,4.08,5.72,8.35,8.74,12.41.85,1.21,1.73,2.39,2.58,3.6.93,1.34,1.89,2.66,2.92,3.95,1.49,2.4,3.24,4.61,4.73,7.02,1.42,1.66,2.49,3.57,3.82,5.33,1.22,1.65,2.31,3.36,3.56,5h0Z"/>
  </g>
  <path class="cls-2" d="M173.86,547.81c8.52.01,17.08-2.3,24.27-6.9,4.35-2.52,8.24-5.91,11.42-9.8,2.12-2.27,3.64-4.95,5.27-7.57,2.7-5.25,4.71-10.91,5.25-16.82.79-6.59.16-13.35-1.75-19.7-1.4-4.83-3.61-9.4-6.4-13.57-3.84-5.67-8.8-10.68-14.73-14.13-1.34-.83-2.48-1.67-3.83-2.5-1.99-1.37-5.2-3.1-7.56-1.26-2.4,2.36-2.28,6.07-2.49,9.24-.01,22.42-.12,44.84-.07,67.26-.14,1.88.44,4.16-1.49,5.27-2,1.21-4.24,2-6.57,2.37-1.91.55-3.72-.28-5.59-.63-1.59-.55-3.33-1.24-4.49-2.35-1.69-1.49-.67-4.12-.95-6.2-.03-22.93.06-45.87-.04-68.8-.33-2.46-.6-5.47-2.9-6.94-1.06-.54-2.25-.47-3.34,0-2.61.76-4.82,2.97-7.04,4.28-3.85,2.26-7.39,5.07-10.38,8.41-2.64,2.67-4.74,5.8-6.67,9.02-2.76,5.02-4.86,10.42-5.81,16.09-.97,5.23-1.06,10.61-.24,15.88,1.24,8.02,4.71,15.67,9.75,22.01,4.99,6.35,11.84,11.01,19.23,14.17,5.48,2.02,11.3,3.27,17.16,3.2h0Z"/>
  <path class="cls-2" d="M174.04,442.78c.63-.02,1.28.07,1.88-.09.38-.02.73-.31,1.13-.24.26-.21.55-.43.89-.44.31-.19.78-.12.94-.53.34-.12.61-.31.91-.48.29-.14.51-.45.78-.64.43-.18.57-.67.98-.88.21-.26.39-.54.66-.76.26-.39.53-.76.69-1.21.27-.21.31-.57.5-.86.14-.31.33-.59.4-.92.14-.29.27-.58.23-.92.15-.4.04-.87.33-1.23-.02-.93.04-1.87-.03-2.79-.3-.38-.15-.88-.3-1.32-.04-.32-.11-.66-.3-.91-.23-.9-.82-1.64-1.24-2.45-.2-.27-.31-.55-.61-.74-.28-.4-.71-.67-.93-1.11-.41-.02-.61-.45-.93-.65-.22-.23-.57-.33-.81-.52-.29-.12-.44-.43-.81-.42-.52-.22-1.02-.54-1.59-.65-.31-.15-.58-.36-.95-.27-.41,0-.81-.1-1.22-.1-.71-.08-1.42,0-2.12.04-.43.16-.94-.09-1.32.25-.45.22-.96.24-1.39.5-.28.22-.67.2-.89.49-.38.07-.64.39-1,.51-.3.25-.62.53-.89.78-.39-.05-.45.44-.72.64-.29.2-.35.55-.62.75-.51.57-.95,1.23-1.25,1.94-.05.34-.35.54-.37.89-.16.33-.3.61-.37.96-.08.36.02.77-.24,1.09.04.84-.17,1.69,0,2.53-.01.45-.03.9.19,1.3-.05.55.19,1.05.42,1.53-.03.39.31.53.36.87.12.29.2.6.41.86.18.58.68.94,1.04,1.4.24.21.3.58.62.72.23.25.4.54.74.66.2.32.61.39.84.69.36.33.92.27,1.2.7.25.18.64.14.88.3.26.14.59.22.86.35.39.03.7.31,1.1.24.61.19,1.29.04,1.93.09h0Z"/>
  <path class="cls-2" d="M196.8,423.98c1.17-2.57,4.25-4.53,6.88-2.57,5.2,3.31,9.13,8.33,13.63,12.54,5.87,5.7,11.21,12.07,14.87,19.43,3.81,7.54,6.06,15.83,6.34,24.29.89,8.54-.55,17.3-3.09,25.46-5.23,15.35-16.05,28.95-30.38,36.72-19.83,11.2-45.52,10.46-64.87-1.42-18.42-10.99-30.37-31.72-31.31-53.08-.49-9.81,1.06-19.74,5-28.78,3.81-9.04,10.16-16.79,17.24-23.51,4.01-4.04,7.72-8.49,12.49-11.61,2.02-1.55,5.27-1.26,6.35,1.19,2.39,3.79,4.04,8.49,3.91,13.09-.59,7.58-7.23,12.23-12.53,16.74-6.28,5.17-10.67,12.22-14.3,19.44-3.28,7.04-5.01,14.75-4.76,22.65.04,16.91,8.38,33.68,22.07,43.7,8.97,6.28,19.84,9.92,30.87,9.56,15.07-.19,29.5-8.01,38.57-19.89,8.12-10.47,12.25-23.95,11.39-37.19-.36-8.08-2.88-15.91-6.63-22.92-3.49-6.3-8.23-11.98-13.81-16.51-4.16-3.88-9.26-7.53-10.6-13.34-1.01-4.78.63-9.68,2.68-13.98h0Z"/>
</svg>